<?xml version="1.0" encoding="UTF-8"?>
<svg width="100px" height="100px" viewBox="0 0 100 100" version="1.1" xmlns="http://www.w3.org/2000/svg" xmlns:xlink="http://www.w3.org/1999/xlink">
    <!-- Generator: Sketch 46.2 (44496) - http://www.bohemiancoding.com/sketch -->
    <title>wpep</title>
    <desc>Created with Sketch.</desc>
    <defs>
        <linearGradient x1="87.203125%" y1="87.0234375%" x2="15.7265625%" y2="21.546875%" id="linearGradient-1">
            <stop stop-color="#4195B5" offset="0%"></stop>
            <stop stop-color="#305A7E" offset="100%"></stop>
        </linearGradient>
    </defs>
    <g id="Page-1" stroke="none" stroke-width="1" fill="none" fill-rule="evenodd">
        <g id="wpep">
            <circle id="Oval-1" fill="url(#linearGradient-1)" cx="50" cy="50" r="50"></circle>
            <g id="Group-2" transform="translate(19.900994, 20.982543)" fill="#FFFFFF">
                <path d="M0,59.2578947 C0,59.2578947 0,27.5785263 15.1736842,20.0943158 C30.3467368,12.6101053 54.0290526,9.432 59.6677895,0 C59.6677895,0 60.4882105,7.89410526 21.7351579,23.8875789 C4.84736842,30.8570526 1.43557895,54.0290526 0,59.2578947" id="Fill-210"></path>
                <path d="M1.26315789,59.1202105 C1.26315789,59.1202105 5.77389474,41.7941053 21.6650526,39.9486316 C37.5562105,38.1031579 47.3981053,38.4107368 52.4216842,34.1052632 C52.4216842,34.1052632 47.6646316,42.9606316 23.2029474,45.4168421 C6.18442105,47.1252632 1.26315789,59.1202105 1.26315789,59.1202105" id="Fill-212"></path>
                <path d="M6.31578947,45.2564211 C6.31578947,45.2564211 11.0317895,33.2273684 20.6002105,31.5865263 C30.1692632,29.9463158 47.9393684,30.6296842 52.7924211,24 C52.7924211,24 49.7722105,33.0757895 38.0974737,34.4576842 C26.5465263,35.8244211 13.5606316,35.004 6.31578947,45.2564211" id="Fill-215"></path>
                <path d="M17.0526316,30.4395789 C17.0526316,30.4395789 19.5814737,26.7492632 34.6863158,23.1947368 C43.3837895,21.1484211 56.0109474,14.0362105 58.1981053,8.84210526 C58.1981053,8.84210526 56.0848421,19.7930526 41.5894737,25.2454737 C34.1393684,28.0477895 23.6141053,27.6378947 17.0526316,30.4395789" id="Fill-218"></path>
            </g>
        </g>
    </g>
</svg>